<?xml version="1.0" encoding="UTF-8" standalone="no"?>
<!-- Created with Inkscape (http://www.inkscape.org/) -->

<svg
   width="112.62869mm"
   height="112.62871mm"
   viewBox="0 0 112.62869 112.62871"
   version="1.1"
   id="svg5"
   inkscape:version="1.2.1 (9c6d41e410, 2022-07-14)"
   sodipodi:docname="logo.svg"
   xmlns:inkscape="http://www.inkscape.org/namespaces/inkscape"
   xmlns:sodipodi="http://sodipodi.sourceforge.net/DTD/sodipodi-0.dtd"
   xmlns="http://www.w3.org/2000/svg"
   xmlns:svg="http://www.w3.org/2000/svg">
  <sodipodi:namedview
     id="namedview7"
     pagecolor="#ffffff"
     bordercolor="#000000"
     borderopacity="0.25"
     inkscape:showpageshadow="2"
     inkscape:pageopacity="0.0"
     inkscape:pagecheckerboard="0"
     inkscape:deskcolor="#d1d1d1"
     inkscape:document-units="mm"
     showgrid="true"
     inkscape:zoom="1.0759173"
     inkscape:cx="253.73697"
     inkscape:cy="529.31578"
     inkscape:window-width="1920"
     inkscape:window-height="991"
     inkscape:window-x="-9"
     inkscape:window-y="-9"
     inkscape:window-maximized="1"
     inkscape:current-layer="g419">
    <inkscape:grid
       type="xygrid"
       id="grid111"
       snapvisiblegridlinesonly="true" />
  </sodipodi:namedview>
  <defs
     id="defs2" />
  <g
     inkscape:label="Capa 1"
     inkscape:groupmode="layer"
     id="layer1"
     style="display:none"
     sodipodi:insensitive="true"
     transform="translate(-40.575837,-66.150923)">
    <circle
       style="fill:#000000;stroke-width:0.264583"
       id="path113"
       cx="96.89019"
       cy="122.46527"
       r="53.117466" />
    <rect
       style="fill:#00ff00;stroke-width:0.474877"
       id="rect219"
       width="91.41304"
       height="3.4694045"
       x="-39.30854"
       y="152.71332"
       ry="1.7347022"
       transform="rotate(-45)" />
    <rect
       style="fill:#00ff00;stroke-width:0.474877"
       id="rect219-9"
       width="91.41304"
       height="3.4694045"
       x="5.9380941"
       y="130.94154"
       ry="1.7347022"
       transform="rotate(-45)" />
    <rect
       style="fill:#00ff00;stroke-width:0.474877"
       id="rect219-4"
       width="91.41304"
       height="3.4694045"
       x="-17.362843"
       y="175.80452"
       ry="1.7347022"
       transform="rotate(-45)" />
  </g>
  <g
     inkscape:label="logo 1"
     inkscape:groupmode="layer"
     id="g419"
     transform="translate(-40.575837,-66.150923)">
    <circle
       style="display:inline;fill:#00ff00;stroke-width:0.280507"
       id="path113-1"
       cx="96.89019"
       cy="122.46527"
       r="56.31435"
       inkscape:label="fondo"
       inkscape:export-filename="logo-ajuste.svg"
       inkscape:export-xdpi="96"
       inkscape:export-ydpi="96" />
    <path
       id="circle411"
       style="fill:#000000;stroke-width:0.264583"
       d="m 96.89021,69.347705 a 53.117466,53.117466 0 0 0 -53.117688,53.117685 53.117466,53.117466 0 0 0 53.117688,53.11717 53.117466,53.117466 0 0 0 53.11769,-53.11717 53.117466,53.117466 0 0 0 -2.60139,-16.3406 l -31.69161,31.6916 c -0.67955,0.67955 -1.77353,0.67955 -2.45308,0 -0.67955,-0.67954 -0.67955,-1.77353 0,-2.45308 l 32.83262,-32.83262 A 53.117466,53.117466 0 0 0 135.19537,85.680558 L 83.869299,137.00662 c -0.679545,0.67955 -1.77405,0.67955 -2.453597,0 -0.679545,-0.67953 -0.679545,-1.77353 0,-2.45308 L 132.71696,83.252283 A 53.117466,53.117466 0 0 0 116.84455,73.241007 l -16.37626,16.376262 c -0.679557,0.679545 -1.773539,0.679545 -2.453084,0 -0.679545,-0.679545 -0.679545,-1.773536 0,-2.45308 L 113.24787,71.931527 A 53.117466,53.117466 0 0 0 96.89021,69.347705 Z"
       inkscape:label="centro" />
  </g>
</svg>
